<mxfile host="app.diagrams.net" agent="Mozilla/5.0 (X11; Linux x86_64) AppleWebKit/537.36 (KHTML, like Gecko) Chrome/106.0.0.0 Safari/537.36" version="24.8.3">
  <diagram name="Page-1" id="70ixmoLpJ77E2RRx9GWS">
    <mxGraphModel dx="1434" dy="801" grid="1" gridSize="10" guides="1" tooltips="1" connect="1" arrows="1" fold="1" page="0" pageScale="1" pageWidth="850" pageHeight="1100" math="0" shadow="0">
      <root>
        <mxCell id="0" />
        <mxCell id="1" parent="0" />
        <mxCell id="44NTMWJ-f4JuKy9p9K9x-2" value="ResPartner" style="swimlane;fontStyle=1;align=center;verticalAlign=top;childLayout=stackLayout;horizontal=1;startSize=25.5;horizontalStack=0;resizeParent=1;resizeParentMax=0;resizeLast=0;collapsible=0;marginBottom=0;" vertex="1" parent="1">
          <mxGeometry x="113" y="60" width="127" height="163.5" as="geometry" />
        </mxCell>
        <mxCell id="44NTMWJ-f4JuKy9p9K9x-3" value="+id" style="text;strokeColor=none;fillColor=none;align=left;verticalAlign=top;spacingLeft=4;spacingRight=4;overflow=hidden;rotatable=0;points=[[0,0.5],[1,0.5]];portConstraint=eastwest;" vertex="1" parent="44NTMWJ-f4JuKy9p9K9x-2">
          <mxGeometry y="25.5" width="127" height="26" as="geometry" />
        </mxCell>
        <mxCell id="44NTMWJ-f4JuKy9p9K9x-4" value="+name" style="text;strokeColor=none;fillColor=none;align=left;verticalAlign=top;spacingLeft=4;spacingRight=4;overflow=hidden;rotatable=0;points=[[0,0.5],[1,0.5]];portConstraint=eastwest;" vertex="1" parent="44NTMWJ-f4JuKy9p9K9x-2">
          <mxGeometry y="51.5" width="127" height="26" as="geometry" />
        </mxCell>
        <mxCell id="44NTMWJ-f4JuKy9p9K9x-5" value="+email" style="text;strokeColor=none;fillColor=none;align=left;verticalAlign=top;spacingLeft=4;spacingRight=4;overflow=hidden;rotatable=0;points=[[0,0.5],[1,0.5]];portConstraint=eastwest;" vertex="1" parent="44NTMWJ-f4JuKy9p9K9x-2">
          <mxGeometry y="77.5" width="127" height="26" as="geometry" />
        </mxCell>
        <mxCell id="44NTMWJ-f4JuKy9p9K9x-6" value="+phone" style="text;strokeColor=none;fillColor=none;align=left;verticalAlign=top;spacingLeft=4;spacingRight=4;overflow=hidden;rotatable=0;points=[[0,0.5],[1,0.5]];portConstraint=eastwest;" vertex="1" parent="44NTMWJ-f4JuKy9p9K9x-2">
          <mxGeometry y="103.5" width="127" height="26" as="geometry" />
        </mxCell>
        <mxCell id="44NTMWJ-f4JuKy9p9K9x-7" style="line;strokeWidth=1;fillColor=none;align=left;verticalAlign=middle;spacingTop=-1;spacingLeft=3;spacingRight=3;rotatable=0;labelPosition=right;points=[];portConstraint=eastwest;strokeColor=inherit;" vertex="1" parent="44NTMWJ-f4JuKy9p9K9x-2">
          <mxGeometry y="129.5" width="127" height="8" as="geometry" />
        </mxCell>
        <mxCell id="44NTMWJ-f4JuKy9p9K9x-8" value="+...(other fields)" style="text;strokeColor=none;fillColor=none;align=left;verticalAlign=top;spacingLeft=4;spacingRight=4;overflow=hidden;rotatable=0;points=[[0,0.5],[1,0.5]];portConstraint=eastwest;" vertex="1" parent="44NTMWJ-f4JuKy9p9K9x-2">
          <mxGeometry y="137.5" width="127" height="26" as="geometry" />
        </mxCell>
        <mxCell id="44NTMWJ-f4JuKy9p9K9x-9" value="SellerProfile" style="swimlane;fontStyle=1;align=center;verticalAlign=top;childLayout=stackLayout;horizontal=1;startSize=24.5;horizontalStack=0;resizeParent=1;resizeParentMax=0;resizeLast=0;collapsible=0;marginBottom=0;" vertex="1" parent="1">
          <mxGeometry x="197" y="288" width="146" height="257.5" as="geometry" />
        </mxCell>
        <mxCell id="44NTMWJ-f4JuKy9p9K9x-10" value="+id" style="text;strokeColor=none;fillColor=none;align=left;verticalAlign=top;spacingLeft=4;spacingRight=4;overflow=hidden;rotatable=0;points=[[0,0.5],[1,0.5]];portConstraint=eastwest;" vertex="1" parent="44NTMWJ-f4JuKy9p9K9x-9">
          <mxGeometry y="24.5" width="146" height="25" as="geometry" />
        </mxCell>
        <mxCell id="44NTMWJ-f4JuKy9p9K9x-11" value="+res_partner_id" style="text;strokeColor=none;fillColor=none;align=left;verticalAlign=top;spacingLeft=4;spacingRight=4;overflow=hidden;rotatable=0;points=[[0,0.5],[1,0.5]];portConstraint=eastwest;" vertex="1" parent="44NTMWJ-f4JuKy9p9K9x-9">
          <mxGeometry y="49.5" width="146" height="25" as="geometry" />
        </mxCell>
        <mxCell id="44NTMWJ-f4JuKy9p9K9x-12" value="+store_name" style="text;strokeColor=none;fillColor=none;align=left;verticalAlign=top;spacingLeft=4;spacingRight=4;overflow=hidden;rotatable=0;points=[[0,0.5],[1,0.5]];portConstraint=eastwest;" vertex="1" parent="44NTMWJ-f4JuKy9p9K9x-9">
          <mxGeometry y="74.5" width="146" height="25" as="geometry" />
        </mxCell>
        <mxCell id="44NTMWJ-f4JuKy9p9K9x-13" value="+business_license" style="text;strokeColor=none;fillColor=none;align=left;verticalAlign=top;spacingLeft=4;spacingRight=4;overflow=hidden;rotatable=0;points=[[0,0.5],[1,0.5]];portConstraint=eastwest;" vertex="1" parent="44NTMWJ-f4JuKy9p9K9x-9">
          <mxGeometry y="99.5" width="146" height="25" as="geometry" />
        </mxCell>
        <mxCell id="44NTMWJ-f4JuKy9p9K9x-14" value="+approval_status" style="text;strokeColor=none;fillColor=none;align=left;verticalAlign=top;spacingLeft=4;spacingRight=4;overflow=hidden;rotatable=0;points=[[0,0.5],[1,0.5]];portConstraint=eastwest;" vertex="1" parent="44NTMWJ-f4JuKy9p9K9x-9">
          <mxGeometry y="124.5" width="146" height="25" as="geometry" />
        </mxCell>
        <mxCell id="44NTMWJ-f4JuKy9p9K9x-15" value="+registration_date" style="text;strokeColor=none;fillColor=none;align=left;verticalAlign=top;spacingLeft=4;spacingRight=4;overflow=hidden;rotatable=0;points=[[0,0.5],[1,0.5]];portConstraint=eastwest;" vertex="1" parent="44NTMWJ-f4JuKy9p9K9x-9">
          <mxGeometry y="149.5" width="146" height="25" as="geometry" />
        </mxCell>
        <mxCell id="44NTMWJ-f4JuKy9p9K9x-16" style="line;strokeWidth=1;fillColor=none;align=left;verticalAlign=middle;spacingTop=-1;spacingLeft=3;spacingRight=3;rotatable=0;labelPosition=right;points=[];portConstraint=eastwest;strokeColor=inherit;" vertex="1" parent="44NTMWJ-f4JuKy9p9K9x-9">
          <mxGeometry y="174.5" width="146" height="8" as="geometry" />
        </mxCell>
        <mxCell id="44NTMWJ-f4JuKy9p9K9x-17" value="+get_products()" style="text;strokeColor=none;fillColor=none;align=left;verticalAlign=top;spacingLeft=4;spacingRight=4;overflow=hidden;rotatable=0;points=[[0,0.5],[1,0.5]];portConstraint=eastwest;" vertex="1" parent="44NTMWJ-f4JuKy9p9K9x-9">
          <mxGeometry y="182.5" width="146" height="25" as="geometry" />
        </mxCell>
        <mxCell id="44NTMWJ-f4JuKy9p9K9x-18" value="+get_orders()" style="text;strokeColor=none;fillColor=none;align=left;verticalAlign=top;spacingLeft=4;spacingRight=4;overflow=hidden;rotatable=0;points=[[0,0.5],[1,0.5]];portConstraint=eastwest;" vertex="1" parent="44NTMWJ-f4JuKy9p9K9x-9">
          <mxGeometry y="207.5" width="146" height="25" as="geometry" />
        </mxCell>
        <mxCell id="44NTMWJ-f4JuKy9p9K9x-19" value="+update_profile()" style="text;strokeColor=none;fillColor=none;align=left;verticalAlign=top;spacingLeft=4;spacingRight=4;overflow=hidden;rotatable=0;points=[[0,0.5],[1,0.5]];portConstraint=eastwest;" vertex="1" parent="44NTMWJ-f4JuKy9p9K9x-9">
          <mxGeometry y="232.5" width="146" height="25" as="geometry" />
        </mxCell>
        <mxCell id="44NTMWJ-f4JuKy9p9K9x-20" value="ResUsers" style="swimlane;fontStyle=1;align=center;verticalAlign=top;childLayout=stackLayout;horizontal=1;startSize=25.142857142857142;horizontalStack=0;resizeParent=1;resizeParentMax=0;resizeLast=0;collapsible=0;marginBottom=0;" vertex="1" parent="1">
          <mxGeometry x="20" y="323" width="127" height="183.14285714285714" as="geometry" />
        </mxCell>
        <mxCell id="44NTMWJ-f4JuKy9p9K9x-21" value="+id" style="text;strokeColor=none;fillColor=none;align=left;verticalAlign=top;spacingLeft=4;spacingRight=4;overflow=hidden;rotatable=0;points=[[0,0.5],[1,0.5]];portConstraint=eastwest;" vertex="1" parent="44NTMWJ-f4JuKy9p9K9x-20">
          <mxGeometry y="25.142857142857142" width="127" height="25" as="geometry" />
        </mxCell>
        <mxCell id="44NTMWJ-f4JuKy9p9K9x-22" value="+login" style="text;strokeColor=none;fillColor=none;align=left;verticalAlign=top;spacingLeft=4;spacingRight=4;overflow=hidden;rotatable=0;points=[[0,0.5],[1,0.5]];portConstraint=eastwest;" vertex="1" parent="44NTMWJ-f4JuKy9p9K9x-20">
          <mxGeometry y="50.14285714285714" width="127" height="25" as="geometry" />
        </mxCell>
        <mxCell id="44NTMWJ-f4JuKy9p9K9x-23" value="+password" style="text;strokeColor=none;fillColor=none;align=left;verticalAlign=top;spacingLeft=4;spacingRight=4;overflow=hidden;rotatable=0;points=[[0,0.5],[1,0.5]];portConstraint=eastwest;" vertex="1" parent="44NTMWJ-f4JuKy9p9K9x-20">
          <mxGeometry y="75.14285714285714" width="127" height="25" as="geometry" />
        </mxCell>
        <mxCell id="44NTMWJ-f4JuKy9p9K9x-24" value="+partner_id" style="text;strokeColor=none;fillColor=none;align=left;verticalAlign=top;spacingLeft=4;spacingRight=4;overflow=hidden;rotatable=0;points=[[0,0.5],[1,0.5]];portConstraint=eastwest;" vertex="1" parent="44NTMWJ-f4JuKy9p9K9x-20">
          <mxGeometry y="100.14285714285714" width="127" height="25" as="geometry" />
        </mxCell>
        <mxCell id="44NTMWJ-f4JuKy9p9K9x-25" value="+groups_id" style="text;strokeColor=none;fillColor=none;align=left;verticalAlign=top;spacingLeft=4;spacingRight=4;overflow=hidden;rotatable=0;points=[[0,0.5],[1,0.5]];portConstraint=eastwest;" vertex="1" parent="44NTMWJ-f4JuKy9p9K9x-20">
          <mxGeometry y="125.14285714285714" width="127" height="25" as="geometry" />
        </mxCell>
        <mxCell id="44NTMWJ-f4JuKy9p9K9x-26" style="line;strokeWidth=1;fillColor=none;align=left;verticalAlign=middle;spacingTop=-1;spacingLeft=3;spacingRight=3;rotatable=0;labelPosition=right;points=[];portConstraint=eastwest;strokeColor=inherit;" vertex="1" parent="44NTMWJ-f4JuKy9p9K9x-20">
          <mxGeometry y="150.14285714285714" width="127" height="8" as="geometry" />
        </mxCell>
        <mxCell id="44NTMWJ-f4JuKy9p9K9x-27" value="+...(other fields)" style="text;strokeColor=none;fillColor=none;align=left;verticalAlign=top;spacingLeft=4;spacingRight=4;overflow=hidden;rotatable=0;points=[[0,0.5],[1,0.5]];portConstraint=eastwest;" vertex="1" parent="44NTMWJ-f4JuKy9p9K9x-20">
          <mxGeometry y="158.14285714285714" width="127" height="25" as="geometry" />
        </mxCell>
        <mxCell id="44NTMWJ-f4JuKy9p9K9x-28" value="has one &gt;" style="curved=1;startArrow=open;startSize=12;endArrow=none;exitX=0;exitY=0.98;entryX=0.5;entryY=0;rounded=0;" edge="1" parent="1" source="44NTMWJ-f4JuKy9p9K9x-2" target="44NTMWJ-f4JuKy9p9K9x-20">
          <mxGeometry relative="1" as="geometry">
            <Array as="points">
              <mxPoint x="83" y="255" />
            </Array>
          </mxGeometry>
        </mxCell>
        <mxCell id="44NTMWJ-f4JuKy9p9K9x-29" value="extends" style="curved=1;startArrow=block;startSize=16;startFill=0;endArrow=none;exitX=1;exitY=0.98;entryX=0.5;entryY=0;rounded=0;" edge="1" parent="1" source="44NTMWJ-f4JuKy9p9K9x-2" target="44NTMWJ-f4JuKy9p9K9x-9">
          <mxGeometry relative="1" as="geometry">
            <Array as="points">
              <mxPoint x="270" y="255" />
            </Array>
          </mxGeometry>
        </mxCell>
      </root>
    </mxGraphModel>
  </diagram>
</mxfile>
